<svg width="691" height="162" viewBox="0 0 691 162" fill="none" xmlns="http://www.w3.org/2000/svg">
<path d="M57.33 161.672C56.7327 161.672 56.434 161.416 56.434 160.904C56.434 160.563 56.6473 160.221 57.074 159.88C57.5007 159.453 57.714 158.984 57.714 158.472C57.714 157.533 57.4153 156.552 56.818 155.528C56.306 154.504 55.7087 153.736 55.026 153.224C51.6127 153.395 48.5407 152.883 45.81 151.688C42.6527 150.237 39.538 148.019 36.466 145.032C33.4793 142.045 31.09 138.333 29.298 133.896C28.7007 135.005 28.1033 135.987 27.506 136.84C26.994 137.693 26.2687 138.504 25.33 139.272C25.4153 140.808 24.7327 142.131 23.282 143.24C21.9167 144.435 20.3807 145.331 18.674 145.928C16.9673 146.611 15.6447 146.952 14.706 146.952C13.8527 146.952 12.6153 146.781 10.994 146.44C9.45801 146.099 7.87935 145.501 6.25801 144.648C4.72201 143.88 3.57001 142.813 2.80201 141.448C3.05801 141.533 3.35668 141.576 3.69801 141.576C4.12468 141.576 4.50868 141.576 4.85001 141.576C6.21535 141.576 7.79401 141.235 9.58601 140.552C11.4633 139.955 13.3407 138.547 15.218 136.328C16.4127 134.877 17.8633 134.152 19.57 134.152C20.7647 134.152 21.874 134.451 22.898 135.048C23.922 135.731 24.6473 136.627 25.074 137.736C25.842 137.053 26.482 136.2 26.994 135.176C27.5913 134.152 27.9753 132.829 28.146 131.208C28.146 131.123 28.146 131.037 28.146 130.952C28.2313 130.952 28.274 130.952 28.274 130.952C27.762 129.16 27.3353 127.283 26.994 125.32C26.738 123.357 26.61 121.309 26.61 119.176C26.61 116.957 26.7807 114.653 27.122 112.264C27.4633 109.875 28.018 107.4 28.786 104.84C25.1167 103.731 21.5753 102.109 18.162 99.976C17.9913 99.8907 17.6927 99.848 17.266 99.848C16.498 99.848 15.5167 100.189 14.322 100.872C13.1273 101.469 12.146 102.195 11.378 103.048C10.61 103.901 10.3967 104.755 10.738 105.608L10.994 106.504C10.994 106.845 10.866 107.016 10.61 107.016C9.92735 107.016 9.28735 106.547 8.69001 105.608C8.17801 104.755 7.92201 103.816 7.92201 102.792C7.92201 101.853 8.17801 101.085 8.69001 100.488C9.28735 99.8053 10.098 99.2933 11.122 98.952C12.2313 98.6107 13.298 98.44 14.322 98.44C15.0047 98.44 15.6447 98.5253 16.242 98.696C15.3887 98.0133 14.322 97.032 13.042 95.752C11.762 94.472 10.482 93.1493 9.20201 91.784C8.00735 90.4187 7.11135 89.2667 6.51401 88.328C4.38068 84.8293 2.80201 81.5013 1.77801 78.344C0.839346 75.1867 0.370012 72.1573 0.370012 69.256C0.370012 64.5627 1.47935 60.5093 3.69801 57.096C5.91668 53.5973 8.86068 50.8667 12.53 48.904C16.1993 46.9413 20.21 45.96 24.562 45.96C28.914 45.96 33.266 46.984 37.618 49.032H37.746C38.1727 49.032 38.5993 49.0747 39.026 49.16C39.4527 49.16 39.8367 49.16 40.178 49.16C41.1167 49.16 41.97 49.0747 42.738 48.904C43.5913 48.7333 44.3593 48.4773 45.042 48.136C44.9567 47.9653 44.8287 47.752 44.658 47.496C44.4873 47.24 44.402 46.9413 44.402 46.6V45.96C44.402 45.1067 44.658 44.4667 45.17 44.04C45.682 43.528 46.1513 43.1867 46.578 43.016C47.09 42.6747 47.602 42.3333 48.114 41.992C48.7113 41.5653 49.0953 41.096 49.266 40.584C49.4367 40.2427 49.522 39.944 49.522 39.688C49.522 39.3467 49.522 39.048 49.522 38.792C49.522 38.3653 49.4793 37.9813 49.394 37.64C49.394 37.2987 49.394 37 49.394 36.744C50.5033 37.512 51.2713 38.664 51.698 40.2C52.1247 41.736 52.338 42.9733 52.338 43.912C52.338 45.7893 51.826 47.1973 50.802 48.136C49.8633 48.9893 48.8393 49.416 47.73 49.416C46.8767 49.416 46.2367 49.2453 45.81 48.904C44.9567 49.5013 44.018 49.8853 42.994 50.056C42.0553 50.2267 41.1167 50.312 40.178 50.312L40.946 50.824C43.9327 52.7867 46.706 55.1333 49.266 57.864C51.9113 60.5947 54.0873 63.624 55.794 66.952C57.5007 65.2453 59.25 63.624 61.042 62.088C62.9193 60.4667 64.7967 58.888 66.674 57.352C66.5887 56.072 66.5033 54.8347 66.418 53.64C66.418 52.36 66.418 51.1227 66.418 49.928C66.418 44.8933 67.058 39.9013 68.338 34.952C69.618 30.0027 72.3913 25.0107 76.658 19.976C78.3647 17.928 80.2847 16.4347 82.418 15.496C84.5514 14.472 86.642 13.96 88.69 13.96C91.6767 13.96 94.1513 14.8133 96.114 16.52C97.0527 17.3733 97.8207 18.44 98.418 19.72C99.0154 20.9147 99.314 22.28 99.314 23.816C99.314 25.352 98.9727 27.0587 98.29 28.936C97.6073 30.8133 96.498 32.8187 94.962 34.952C93.5967 36.8293 91.6767 38.92 89.202 41.224C86.7273 43.528 84.082 45.832 81.266 48.136C78.45 50.44 75.89 52.5733 73.586 54.536C74.2687 57.6933 74.9087 60.8933 75.506 64.136C76.1034 67.3787 76.402 70.6213 76.402 73.864C76.402 77.1067 75.9327 80.392 74.994 83.72C74.1407 87.048 72.4767 90.3333 70.002 93.576C66.674 98.0133 62.45 101.299 57.33 103.432C52.2953 105.651 47.0473 106.76 41.586 106.76C38.8553 106.76 36.21 106.504 33.65 105.992C33.0527 107.869 32.5407 109.747 32.114 111.624C31.7727 113.587 31.5167 115.421 31.346 117.128C31.346 117.128 31.4313 117.299 31.602 117.64C32.114 120.2 33.1807 122.163 34.802 123.528C35.3993 122.931 36.1247 122.632 36.978 122.632C38.3433 122.632 39.154 123.101 39.41 124.04C40.0927 126.003 41.0313 127.24 42.226 127.752C43.506 128.349 44.4447 128.691 45.042 128.776C44.53 129.288 43.89 129.629 43.122 129.8C42.4393 129.971 41.714 130.056 40.946 130.056C40.3487 130.056 39.794 130.013 39.282 129.928C38.77 129.843 38.3433 129.757 38.002 129.672C37.4047 129.501 36.594 129.032 35.57 128.264C34.546 127.581 34.034 126.685 34.034 125.576C34.034 125.064 34.1193 124.637 34.29 124.296C33.4367 123.613 32.7967 122.888 32.37 122.12C31.9433 121.437 31.5593 120.669 31.218 119.816C31.0473 125.021 31.6447 129.672 33.01 133.768C34.4607 137.864 36.3807 141.235 38.77 143.88C41.2447 146.611 43.89 148.573 46.706 149.768C49.1807 150.792 51.826 151.304 54.642 151.304C57.6287 151.304 60.4874 150.749 63.218 149.64C66.034 148.616 68.2953 147.165 70.002 145.288C71.794 143.411 72.69 141.277 72.69 138.888C72.69 138.632 72.69 138.376 72.69 138.12C72.69 137.864 72.6474 137.608 72.562 137.352C72.4767 136.669 72.0927 135.901 71.41 135.048C70.7274 134.28 69.5754 133.725 67.954 133.384C67.1007 133.213 66.2047 132.787 65.266 132.104C64.3273 131.507 63.6873 130.653 63.346 129.544C63.2607 129.373 63.218 129.075 63.218 128.648C63.218 127.283 63.858 126.216 65.138 125.448C65.5647 125.277 65.778 125.277 65.778 125.448C65.778 125.704 65.6927 126.003 65.522 126.344C65.3513 126.685 65.266 126.899 65.266 126.984C65.266 127.411 65.522 127.795 66.034 128.136C66.6313 128.563 67.2287 128.776 67.826 128.776C68.7647 128.776 69.5754 128.776 70.258 128.776C70.9407 128.861 71.5807 128.989 72.178 129.16C72.0927 128.733 71.9647 128.349 71.794 128.008C71.7087 127.667 71.7087 127.325 71.794 126.984C71.9647 125.789 72.3487 124.979 72.946 124.552C73.5434 124.211 74.1407 124.04 74.738 124.04C75.0793 124.04 75.506 124.125 76.018 124.296C76.3593 124.467 76.53 124.723 76.53 125.064C76.53 125.491 76.1887 125.747 75.506 125.832C74.9087 125.917 74.5247 126.387 74.354 127.24C74.1833 128.179 74.1407 129.117 74.226 130.056C74.9087 130.483 75.378 130.995 75.634 131.592C75.9754 132.275 76.146 132.957 76.146 133.64C76.146 135.091 75.634 136.285 74.61 137.224C74.6953 137.565 74.738 137.864 74.738 138.12C74.738 138.461 74.738 138.803 74.738 139.144C74.738 141.789 73.8847 144.093 72.178 146.056C70.4714 148.104 68.2527 149.725 65.522 150.92C62.7913 152.115 59.9327 152.84 56.946 153.096C57.5433 153.437 58.1833 153.949 58.866 154.632C59.634 155.315 60.146 155.997 60.402 156.68C60.5727 157.021 60.658 157.32 60.658 157.576C60.658 157.832 60.658 158.088 60.658 158.344C60.658 159.453 60.274 160.264 59.506 160.776C58.738 161.373 58.0127 161.672 57.33 161.672ZM73.074 52.104C75.2927 50.2267 77.7247 48.2213 80.37 46.088C83.0153 43.9547 85.49 41.8213 87.794 39.688C90.1833 37.5547 92.018 35.592 93.298 33.8C94.7487 31.8373 95.7727 30.0453 96.37 28.424C96.9673 26.7173 97.266 25.1813 97.266 23.816C97.266 22.6213 97.01 21.5547 96.498 20.616C96.0714 19.592 95.474 18.7387 94.706 18.056C93.0847 16.6907 91.122 16.008 88.818 16.008C87.026 16.008 85.1914 16.4347 83.314 17.288C81.4367 18.1413 79.73 19.464 78.194 21.256C75.7194 24.2427 74.0127 27.272 73.074 30.344C72.1353 33.416 71.666 36.5733 71.666 39.816C71.666 41.864 71.794 43.912 72.05 45.96C72.3914 48.008 72.7327 50.056 73.074 52.104ZM29.298 103.304C29.81 101.768 30.4073 100.189 31.09 98.568C31.7727 96.9467 32.5407 95.3253 33.394 93.704C35.6127 89.2667 38.5567 84.9147 42.226 80.648C45.9807 76.3813 50.034 72.2427 54.386 68.232C52.85 65.0747 50.802 62.216 48.242 59.656C45.682 57.096 42.9087 55.0053 39.922 53.384C35.4847 50.9093 31.1327 49.672 26.866 49.672C22.77 49.672 19.1007 50.7387 15.858 52.872C12.6153 54.92 10.0553 57.736 8.17801 61.32C6.30068 64.8187 5.36201 68.7013 5.36201 72.968C5.36201 77.2347 6.38601 81.544 8.43401 85.896C10.6527 90.5893 13.5967 94.3867 17.266 97.288C21.0207 100.104 25.0313 102.109 29.298 103.304ZM37.746 104.456C42.6953 104.456 47.346 103.304 51.698 101C56.1353 98.6107 59.762 95.112 62.578 90.504C65.4793 85.8107 67.0153 80.008 67.186 73.096C67.2713 70.8773 67.2713 68.744 67.186 66.696C67.1007 64.5627 66.9727 62.472 66.802 60.424C65.1807 61.96 63.5167 63.496 61.81 65.032C60.1887 66.568 58.61 68.1467 57.074 69.768C57.7567 71.4747 58.2687 73.224 58.61 75.016C59.0367 76.7227 59.25 78.4293 59.25 80.136C59.25 80.904 59.2073 81.672 59.122 82.44C59.0367 83.208 58.9087 83.976 58.738 84.744L56.818 84.36C57.074 82.824 57.202 81.3307 57.202 79.88C57.202 76.8933 56.69 73.992 55.666 71.176C52.1673 74.8453 48.9247 78.5573 45.938 82.312C43.0367 86.0667 40.562 89.9493 38.514 93.96C36.8073 97.4587 35.3567 100.872 34.162 104.2C34.7593 104.285 35.3567 104.328 35.954 104.328C36.5513 104.413 37.1487 104.456 37.746 104.456ZM12.274 91.016C11.6767 91.016 11.4633 90.5467 11.634 89.608C11.8047 87.9013 12.2313 86.536 12.914 85.512C13.682 84.4027 14.5353 83.208 15.474 81.928C14.962 81.2453 14.706 80.4773 14.706 79.624C14.706 78.5147 15.09 77.3627 15.858 76.168C16.7113 74.9733 17.9487 73.9493 19.57 73.096C20.85 72.4133 22.4713 71.8587 24.434 71.432C26.482 71.0053 28.4447 70.792 30.322 70.792C31.7727 70.792 33.138 70.92 34.418 71.176C35.698 71.432 36.722 71.9013 37.49 72.584C38.1727 73.1813 38.514 73.6507 38.514 73.992C38.514 74.3333 38.4713 74.5893 38.386 74.76C38.0447 74.6747 37.7033 74.632 37.362 74.632C37.0207 74.5467 36.6793 74.504 36.338 74.504C34.546 74.504 33.266 74.76 32.498 75.272C31.8153 75.6987 31.2607 76.3387 30.834 77.192C30.4073 77.96 29.8527 78.856 29.17 79.88C28.5727 80.8187 27.506 81.7573 25.97 82.696C24.3487 83.72 22.642 84.232 20.85 84.232C19.3993 84.232 18.0767 83.8907 16.882 83.208C15.5167 84.232 14.578 85.2987 14.066 86.408C13.554 87.5173 13.2127 88.7547 13.042 90.12C12.9567 90.7173 12.7007 91.016 12.274 91.016ZM119.641 123.656C119.3 123.656 118.916 123.528 118.489 123.272C117.38 122.504 116.825 121.608 116.825 120.584C116.825 118.792 117.977 117.469 120.281 116.616C121.22 116.36 122.158 116.232 123.097 116.232C117.892 113.757 113.71 110.301 110.553 105.864C107.396 101.512 105.817 96.6907 105.817 91.4C105.817 88.4987 106.329 85.5547 107.353 82.568C108.377 79.496 109.998 76.424 112.217 73.352C113.753 71.1333 115.545 69.2133 117.593 67.592C118.276 66.824 118.745 65.928 119.001 64.904C119.257 63.88 119.385 62.9413 119.385 62.088C119.385 60.7227 119.001 59.4 118.233 58.12C117.465 56.84 116.569 56.3707 115.545 56.712H115.289C114.862 56.712 114.649 56.5413 114.649 56.2C114.649 55.688 114.99 55.2187 115.673 54.792C116.526 54.1947 117.38 53.896 118.233 53.896C119.428 53.896 120.409 54.408 121.177 55.432C122.03 56.456 122.457 57.7787 122.457 59.4C122.457 60.424 122.244 61.4907 121.817 62.6C121.476 63.7093 120.878 64.7333 120.025 65.672C122.841 63.624 125.956 61.96 129.369 60.68C132.782 59.3147 136.324 58.376 139.993 57.864C139.993 57.6933 140.206 57.608 140.633 57.608C141.572 57.608 142.51 57.5227 143.449 57.352C144.388 57.096 145.284 56.7547 146.137 56.328C148.014 55.3893 149.252 54.28 149.849 53C148.569 52.744 147.502 52.0613 146.649 50.952C145.881 49.7573 145.497 48.4773 145.497 47.112C145.497 45.6613 145.71 44.4667 146.137 43.528C146.564 42.504 146.948 41.6507 147.289 40.968C147.46 40.5413 147.63 40.072 147.801 39.56C147.972 38.9627 148.057 38.3653 148.057 37.768C148.057 37 147.886 36.2747 147.545 35.592C147.289 34.9093 146.734 34.4827 145.881 34.312C145.966 34.1413 146.137 33.9707 146.393 33.8C146.649 33.6293 147.076 33.544 147.673 33.544C149.124 33.544 150.489 34.2267 151.769 35.592C153.049 36.9573 154.116 38.5787 154.969 40.456C155.822 42.248 156.249 43.8693 156.249 45.32C156.249 47.4533 155.694 49.2453 154.585 50.696C153.561 52.0613 152.409 52.8293 151.129 53C150.361 54.9627 149.124 56.4133 147.417 57.352C151.94 57.4373 156.292 58.2053 160.473 59.656C164.654 61.0213 168.324 63.1547 171.481 66.056C172.846 67.1653 173.998 68.488 174.937 70.024C175.876 71.4747 176.644 72.968 177.241 74.504C177.838 75.1013 178.478 75.5707 179.161 75.912C179.844 76.2533 180.441 76.5093 180.953 76.68C181.209 76.7653 181.465 76.808 181.721 76.808C181.977 76.808 182.233 76.808 182.489 76.808C184.196 76.808 185.092 76.3387 185.177 75.4C185.348 74.9733 185.518 74.76 185.689 74.76C186.286 74.76 186.585 75.4853 186.585 76.936C186.585 77.96 186.244 78.7707 185.561 79.368C184.964 79.88 184.196 80.136 183.257 80.136C182.404 80.136 181.508 79.88 180.569 79.368C179.716 79.0267 178.905 78.3867 178.137 77.448C178.393 78.728 178.521 80.008 178.521 81.288C178.521 84.1893 177.838 86.7493 176.473 88.968C176.644 90.4187 176.388 91.912 175.705 93.448C175.108 94.8987 173.785 96.0507 171.737 96.904C170.628 97.3307 169.476 97.544 168.281 97.544C167.086 97.544 165.806 97.3733 164.441 97.032C163.076 96.6907 161.753 96.264 160.473 95.752C159.705 95.496 158.894 95.368 158.041 95.368C156.164 95.368 154.884 95.88 154.201 96.904C153.86 97.5013 153.604 97.928 153.433 98.184C153.262 98.44 153.092 98.312 152.921 97.8C152.665 97.288 152.537 96.7333 152.537 96.136C152.537 94.6 153.262 93.2347 154.713 92.04C155.908 91.1013 157.358 90.4187 159.065 89.992C160.857 89.5653 162.436 89.352 163.801 89.352C164.228 89.352 164.569 89.3947 164.825 89.48C165.166 89.48 165.465 89.5227 165.721 89.608C165.892 89.608 166.02 89.6507 166.105 89.736C166.276 89.736 166.404 89.736 166.489 89.736C165.892 89.3093 165.593 88.712 165.593 87.944C165.593 86.5787 165.977 85.5973 166.745 85C166.916 84.8293 167.086 84.744 167.257 84.744C167.513 84.744 167.684 84.872 167.769 85.128C167.854 85.2987 167.812 85.512 167.641 85.768C167.47 86.024 167.385 86.3653 167.385 86.792C167.385 87.6453 167.812 88.4133 168.665 89.096C169.518 89.6933 170.5 89.9493 171.609 89.864C172.804 89.608 173.828 89.224 174.681 88.712V88.584C176.132 86.4507 176.857 84.104 176.857 81.544C176.857 79.0693 176.26 76.5947 175.065 74.12C173.956 71.56 172.334 69.3413 170.201 67.464C167.385 64.9893 164.185 63.1547 160.601 61.96C157.017 60.7653 153.262 60.168 149.337 60.168C143.62 60.168 138.03 61.32 132.569 63.624C127.108 65.8427 122.585 68.9573 119.001 72.968C119.684 72.7973 120.324 72.6693 120.921 72.584C121.518 72.4987 122.116 72.456 122.713 72.456C123.14 72.456 123.566 72.456 123.993 72.456C124.42 72.456 124.846 72.5413 125.273 72.712C126.212 71.7733 127.534 71.304 129.241 71.304C131.374 71.304 133.38 72.1147 135.257 73.736C136.537 74.8453 137.646 76.4667 138.585 78.6C139.524 80.7333 139.993 82.7813 139.993 84.744C139.993 86.024 139.737 87.1333 139.225 88.072C138.884 88.6693 138.5 89.0533 138.073 89.224C137.646 89.3093 137.348 89.352 137.177 89.352C137.348 88.84 137.433 88.4133 137.433 88.072C137.433 86.9627 136.878 86.024 135.769 85.256C134.66 84.4027 133.636 83.8907 132.697 83.72C131.844 83.5493 130.905 83.336 129.881 83.08C128.942 82.7387 127.876 82.1413 126.681 81.288C125.828 80.6907 125.145 79.9227 124.633 78.984C124.206 77.96 123.993 76.9787 123.993 76.04C123.993 75.272 124.121 74.5893 124.377 73.992C124.036 73.9067 123.694 73.864 123.353 73.864C123.097 73.7787 122.756 73.736 122.329 73.736C120.622 73.736 118.745 74.4613 116.697 75.912C114.82 78.5573 113.454 81.288 112.601 84.104C111.748 86.8347 111.321 89.5227 111.321 92.168C111.321 96.4347 112.388 100.403 114.521 104.072C116.654 107.741 119.641 110.771 123.481 113.16C127.321 115.549 131.801 117.043 136.921 117.64C139.396 117.896 141.785 118.024 144.089 118.024C148.27 118.024 152.196 117.597 155.865 116.744C159.534 115.976 162.99 114.824 166.233 113.288H165.721C163.929 113.288 162.308 112.733 160.857 111.624C159.406 110.6 158.681 109.363 158.681 107.912C158.681 106.717 159.108 105.864 159.961 105.352C160.814 104.925 161.582 104.712 162.265 104.712C162.777 104.712 163.118 104.797 163.289 104.968C163.46 105.224 163.246 105.523 162.649 105.864C162.052 106.205 161.753 106.845 161.753 107.784C161.753 108.637 162.009 109.448 162.521 110.216C162.862 110.728 163.417 111.283 164.185 111.88C165.038 112.563 166.02 112.861 167.129 112.776C173.785 109.533 179.716 105.181 184.921 99.72C190.126 94.2587 194.99 88.2427 199.513 81.672C204.036 75.1013 208.516 68.5733 212.953 62.088C217.22 55.8587 221.657 49.8427 226.265 44.04C230.873 38.2373 235.737 33.5013 240.857 29.832C235.822 28.1253 230.745 26.4613 225.625 24.84C220.59 23.2187 215.428 21.9813 210.137 21.128C209.284 20.9573 208.388 20.872 207.449 20.872C206.596 20.7867 205.742 20.7013 204.889 20.616C203.353 20.9573 201.945 21.5973 200.665 22.536C199.385 23.4747 198.532 24.328 198.105 25.096C199.129 25.7787 199.641 26.8453 199.641 28.296C199.641 29.7467 199.214 30.9413 198.361 31.88C197.593 32.7333 196.825 33.3733 196.057 33.8C195.374 34.2267 194.734 34.568 194.137 34.824C193.54 35.1653 192.857 35.6773 192.089 36.36C191.406 37.0427 191.065 37.8107 191.065 38.664C191.065 39.176 191.236 39.6027 191.577 39.944C191.492 39.944 191.406 39.9867 191.321 40.072C191.321 40.072 191.278 40.072 191.193 40.072C190.766 40.072 190.297 39.816 189.785 39.304C188.846 38.3653 188.377 36.8293 188.377 34.696C188.377 33.416 188.548 32.136 188.889 30.856C189.23 29.4907 189.7 28.3813 190.297 27.528C191.918 25.3947 193.796 24.328 195.929 24.328C196.356 24.328 196.825 24.4133 197.337 24.584C197.764 23.6453 198.404 22.8347 199.257 22.152C200.196 21.4693 201.22 20.9147 202.329 20.488C196.697 20.3173 191.79 20.9573 187.609 22.408C183.513 23.7733 180.142 25.6933 177.497 28.168C174.852 30.5573 172.889 33.2453 171.609 36.232C170.329 39.1333 169.689 42.0347 169.689 44.936C169.689 49.2027 171.012 52.9573 173.657 56.2C176.302 59.4427 180.057 61.064 184.921 61.064C187.993 61.064 190.937 60.3387 193.753 58.888C196.569 57.352 198.916 55.2613 200.793 52.616C202.756 49.9707 203.78 46.9413 203.865 43.528C203.78 42.8453 203.652 42.248 203.481 41.736C203.31 41.1387 203.097 40.712 202.841 40.456C202.073 39.432 201.049 38.92 199.769 38.92C199.172 38.92 198.745 39.048 198.489 39.304C198.318 39.4747 198.148 39.56 197.977 39.56C197.721 39.56 197.593 39.3893 197.593 39.048C197.593 38.6213 197.721 38.2373 197.977 37.896C198.745 36.5307 199.812 35.848 201.177 35.848C202.798 35.848 203.993 36.7867 204.761 38.664C205.102 39.3467 205.273 40.328 205.273 41.608C205.273 41.864 205.273 42.12 205.273 42.376C205.273 42.632 205.23 42.888 205.145 43.144C205.145 43.9973 205.102 44.8507 205.017 45.704C204.932 46.472 204.804 47.24 204.633 48.008C204.974 47.6667 205.273 47.4107 205.529 47.24C206.297 46.728 207.108 46.472 207.961 46.472C208.814 46.472 209.54 46.728 210.137 47.24C210.734 47.752 211.033 48.4773 211.033 49.416C211.033 50.0987 210.905 50.568 210.649 50.824C210.393 50.9947 210.18 50.824 210.009 50.312C209.838 49.6293 209.156 49.288 207.961 49.288C207.705 49.288 207.449 49.3307 207.193 49.416C206.937 49.416 206.681 49.4587 206.425 49.544C205.828 49.7147 205.145 50.1413 204.377 50.824C203.609 51.5067 202.969 52.36 202.457 53.384C200.58 56.3707 198.062 58.6747 194.905 60.296C191.833 61.9173 188.548 62.728 185.049 62.728C180.612 62.728 176.857 61.832 173.785 60.04C170.798 58.248 168.537 55.9013 167.001 53C165.465 50.0133 164.697 46.856 164.697 43.528C164.697 39.2613 165.977 35.0373 168.537 30.856C171.182 26.6747 175.193 23.3893 180.569 21C179.972 21 179.417 20.872 178.905 20.616C177.454 20.2747 176.089 19.3787 174.809 17.928C174.468 18.0133 174.084 18.1413 173.657 18.312C173.316 18.3973 172.932 18.44 172.505 18.44C171.566 18.44 170.542 18.2267 169.433 17.8C168.324 17.288 167.3 16.5627 166.361 15.624C165.337 14.5147 164.441 13.0213 163.673 11.144C162.99 9.18133 162.649 7.304 162.649 5.51199C162.649 4.82933 162.734 4.14666 162.905 3.464C163.076 2.78133 163.332 2.22666 163.673 1.8C164.1 1.11733 164.526 0.775993 164.953 0.775993C165.38 0.690661 165.636 0.690661 165.721 0.775993C165.465 1.11733 165.337 1.54399 165.337 2.05599C165.337 2.99466 165.806 3.89066 166.745 4.744C167.769 5.59733 168.708 6.10933 169.561 6.28C170.329 6.536 171.182 6.83466 172.121 7.17599C173.06 7.51733 174.041 8.15733 175.065 9.09599C176.516 10.376 177.241 11.9973 177.241 13.96C177.241 15.24 176.772 16.3493 175.833 17.288C176.857 18.2267 178.18 18.9093 179.801 19.336C180.569 19.5067 181.38 19.6347 182.233 19.72C183.086 19.72 183.897 19.6773 184.665 19.592C188.505 18.3973 192.857 17.8 197.721 17.8C200.878 17.8 204.164 18.056 207.577 18.568C212.953 19.4213 218.798 20.7867 225.113 22.664C231.513 24.5413 237.486 26.4187 243.033 28.296C245.508 26.8453 248.025 25.6933 250.585 24.84C253.23 23.9867 255.918 23.56 258.649 23.56C261.038 23.56 262.83 24.072 264.025 25.096C265.305 26.12 265.945 27.2293 265.945 28.424C265.945 29.7893 265.22 31.0267 263.769 32.136C262.404 33.16 260.228 33.672 257.241 33.672C256.217 33.672 255.108 33.5867 253.913 33.416C252.718 33.2453 251.396 32.9893 249.945 32.648C249.262 32.4773 248.58 32.3067 247.897 32.136C247.214 31.88 246.532 31.624 245.849 31.368C242.436 34.2693 239.15 37.7253 235.993 41.736C232.836 45.7467 230.02 49.672 227.545 53.512C225.07 57.352 223.108 60.4667 221.657 62.856V62.984H248.537C252.292 57.6933 256.345 52.4027 260.697 47.112C265.134 41.736 269.657 36.6587 274.265 31.88C278.873 27.016 283.396 22.7493 287.833 19.08C292.356 15.3253 296.537 12.3813 300.377 10.248C304.217 8.11466 307.502 7.048 310.233 7.048C311.94 7.048 313.348 7.51733 314.457 8.45599C315.566 9.30933 315.993 10.9733 315.737 13.448H314.073C314.073 13.2773 314.073 13.1067 314.073 12.936C314.158 12.68 314.201 12.4667 314.201 12.296C314.201 11.016 313.86 10.12 313.177 9.60799C312.494 9.01066 311.684 8.712 310.745 8.712C308.356 8.712 305.412 9.90666 301.913 12.296C298.5 14.6 294.83 17.7147 290.905 21.64C286.98 25.48 283.054 29.704 279.129 34.312C275.204 38.8347 271.492 43.3573 267.993 47.88C264.58 52.3173 261.593 56.328 259.033 59.912C256.473 63.496 254.638 66.184 253.529 67.976C250.542 72.9253 247.854 77.704 245.465 82.312C243.161 86.8347 241.412 90.76 240.217 94.088C239.79 95.4533 239.449 96.648 239.193 97.672C238.937 98.6107 238.809 99.4213 238.809 100.104C238.809 101.555 239.364 102.28 240.473 102.28C241.412 102.28 242.99 101.683 245.209 100.488C248.025 98.952 250.542 97.0747 252.761 94.856C255.065 92.552 256.644 90.8027 257.497 89.608L258.393 90.504C256.004 93.4053 253.614 96.0933 251.225 98.568C248.836 100.957 245.849 102.877 242.265 104.328C241.412 104.669 240.601 104.925 239.833 105.096C239.065 105.267 238.34 105.352 237.657 105.352C235.78 105.352 234.329 104.669 233.305 103.304C232.281 102.024 231.769 100.317 231.769 98.184C231.769 94.5147 233.177 89.736 235.993 83.848C238.809 77.8747 242.564 71.5173 247.257 64.776H220.505C216.068 72.1147 211.246 79.112 206.041 85.768C200.921 92.424 195.246 98.3547 189.017 103.56C182.873 108.765 176.089 112.861 168.665 115.848C161.326 118.835 153.262 120.328 144.473 120.328C141.913 120.328 139.225 120.2 136.409 119.944C132.996 119.517 129.668 118.749 126.425 117.64C125.572 117.469 124.718 117.512 123.865 117.768C123.012 118.109 122.372 118.451 121.945 118.792C121.092 119.389 120.452 120.072 120.025 120.84C119.598 121.608 119.556 122.248 119.897 122.76C120.068 123.101 120.153 123.272 120.153 123.272C120.153 123.528 119.982 123.656 119.641 123.656ZM259.161 31.752C260.612 31.6667 261.764 31.2827 262.617 30.6C263.47 29.9173 263.897 29.1493 263.897 28.296C263.897 27.528 263.47 26.8453 262.617 26.248C261.849 25.6507 260.526 25.352 258.649 25.352C256.857 25.4373 255.065 25.9067 253.273 26.76C251.481 27.528 249.646 28.5947 247.769 29.96C249.902 30.6427 251.737 31.112 253.273 31.368C254.809 31.624 256.772 31.752 259.161 31.752ZM302.83 117C302.489 117 302.105 116.872 301.678 116.616C300.569 115.848 300.014 114.952 300.014 113.928C300.014 112.136 301.166 110.813 303.47 109.96C304.409 109.533 305.433 109.405 306.542 109.576C301.763 106.76 297.923 103.091 295.022 98.568C292.121 93.96 290.67 88.968 290.67 83.592C290.67 80.6907 291.139 77.7467 292.078 74.76C293.102 71.688 294.681 68.6587 296.814 65.672C297.411 64.904 298.009 64.136 298.606 63.368C299.289 62.6 299.971 61.8747 300.654 61.192H300.526C301.209 60.5093 301.721 59.6133 302.062 58.504C302.403 57.3093 302.574 56.2427 302.574 55.304C302.574 53.9387 302.147 52.6587 301.294 51.464C300.526 50.184 299.673 49.672 298.734 49.928C298.649 49.928 298.563 49.9707 298.478 50.056C298.478 50.056 298.435 50.056 298.35 50.056C297.923 50.056 297.71 49.8853 297.71 49.544C297.71 48.9467 298.094 48.4773 298.862 48.136C299.715 47.5387 300.569 47.24 301.422 47.24C302.617 47.24 303.598 47.752 304.366 48.776C305.219 49.8 305.646 51.1227 305.646 52.744C305.646 55.1333 304.75 57.3093 302.958 59.272C306.542 56.3707 310.638 54.1093 315.246 52.488C319.854 50.8667 324.505 49.9707 329.198 49.8L329.326 49.672C331.203 48.7333 332.441 47.624 333.038 46.344C331.758 46.088 330.691 45.4053 329.838 44.296C329.07 43.1013 328.686 41.8213 328.686 40.456C328.686 39.0053 328.899 37.8107 329.326 36.872C329.753 35.848 330.137 34.9947 330.478 34.312C330.649 33.8853 330.819 33.416 330.99 32.904C331.161 32.3067 331.246 31.7093 331.246 31.112C331.246 30.344 331.075 29.6187 330.734 28.936C330.478 28.2533 329.923 27.8267 329.07 27.656C329.155 27.4853 329.326 27.3147 329.582 27.144C329.838 26.9733 330.265 26.888 330.862 26.888C332.313 26.888 333.678 27.5707 334.958 28.936C336.238 30.3013 337.305 31.9227 338.158 33.8C339.011 35.592 339.438 37.2133 339.438 38.664C339.438 40.712 338.883 42.4613 337.774 43.912C336.75 45.3627 335.598 46.1733 334.318 46.344C333.806 47.7093 333.038 48.8187 332.014 49.672C336.537 49.7573 340.889 50.5253 345.07 51.976C349.251 53.3413 352.921 55.4747 356.078 58.376C358.382 60.424 360.131 62.8133 361.326 65.544C362.435 66.4827 363.502 67.0373 364.526 67.208C365.209 67.3787 365.763 67.464 366.19 67.464C366.873 67.464 367.47 67.336 367.982 67.08C368.494 66.824 368.793 66.4827 368.878 66.056C368.878 65.6293 369.006 65.416 369.262 65.416C369.859 65.416 370.158 66.0987 370.158 67.464C370.158 68.488 369.817 69.2987 369.134 69.896C368.451 70.408 367.641 70.664 366.702 70.664C366.361 70.664 365.934 70.6213 365.422 70.536C364.995 70.4507 364.569 70.28 364.142 70.024C363.886 69.8533 363.587 69.6827 363.246 69.512C362.99 69.256 362.734 69.0427 362.478 68.872C362.905 70.5787 363.118 72.2 363.118 73.736C363.118 74.9307 362.99 76.1253 362.734 77.32C362.478 78.5147 362.009 79.6667 361.326 80.776C361.497 82.2267 361.241 83.72 360.558 85.256C359.961 86.7067 358.681 87.8587 356.718 88.712C355.609 89.1387 354.457 89.352 353.262 89.352C351.982 89.352 350.659 89.1813 349.294 88.84C347.929 88.4987 346.606 88.072 345.326 87.56C344.729 87.304 343.961 87.176 343.022 87.176C342.169 87.176 341.358 87.304 340.59 87.56C339.907 87.816 339.395 88.2 339.054 88.712C338.713 89.3093 338.457 89.736 338.286 89.992C338.201 90.248 338.03 90.12 337.774 89.608C337.518 89.096 337.39 88.5413 337.39 87.944C337.39 86.3227 338.158 84.9573 339.694 83.848C340.889 82.9093 342.339 82.2267 344.046 81.8C345.838 81.3733 347.374 81.16 348.654 81.16C349.081 81.16 349.422 81.2027 349.678 81.288C350.019 81.288 350.318 81.3307 350.574 81.416C350.745 81.416 350.873 81.4587 350.958 81.544C351.129 81.544 351.257 81.544 351.342 81.544C350.745 80.9467 350.446 80.2213 350.446 79.368C350.446 78.2587 350.83 77.4053 351.598 76.808C351.939 76.6373 352.153 76.552 352.238 76.552C352.409 76.552 352.537 76.68 352.622 76.936C352.793 77.1067 352.793 77.32 352.622 77.576C352.366 77.9173 352.238 78.2587 352.238 78.6C352.238 79.4533 352.665 80.2213 353.518 80.904C354.457 81.5013 355.438 81.7573 356.462 81.672C357.657 81.416 358.681 81.032 359.534 80.52C360.814 78.5573 361.454 76.3387 361.454 73.864C361.454 71.3893 360.857 68.9147 359.662 66.44C358.553 63.88 356.931 61.6613 354.798 59.784C352.067 57.3093 348.867 55.5173 345.198 54.408C341.614 53.2133 337.902 52.616 334.062 52.616C328.174 52.616 322.371 53.8107 316.654 56.2C310.937 58.5893 306.329 61.9173 302.83 66.184C303.342 66.0133 303.811 65.8853 304.238 65.8C304.75 65.7147 305.262 65.672 305.774 65.672C306.627 65.672 307.481 65.8 308.334 66.056L308.462 65.928C309.315 65.0747 310.595 64.648 312.302 64.648C313.241 64.648 314.265 64.8613 315.374 65.288C316.483 65.6293 317.507 66.2267 318.446 67.08C319.726 68.1893 320.835 69.8107 321.774 71.944C322.713 74.0773 323.182 76.1253 323.182 78.088C323.182 79.368 322.926 80.4773 322.414 81.416C321.987 82.0133 321.561 82.3973 321.134 82.568C320.793 82.6533 320.537 82.6533 320.366 82.568C320.537 82.056 320.622 81.672 320.622 81.416C320.622 80.3067 320.067 79.368 318.958 78.6C317.849 77.7467 316.825 77.2347 315.886 77.064C315.033 76.8933 314.094 76.68 313.07 76.424C312.131 76.0827 311.065 75.4853 309.87 74.632C309.017 74.0347 308.334 73.2667 307.822 72.328C307.395 71.304 307.182 70.3227 307.182 69.384C307.182 68.616 307.31 67.9333 307.566 67.336C307.225 67.2507 306.883 67.208 306.542 67.208C306.201 67.1227 305.859 67.08 305.518 67.08C304.238 67.08 302.787 67.5067 301.166 68.36C299.459 70.92 298.179 73.5653 297.326 76.296C296.558 78.9413 296.174 81.6293 296.174 84.36C296.174 89.0533 297.283 93.448 299.502 97.544C301.806 101.64 304.963 105.011 308.974 107.656C312.985 110.301 317.593 111.837 322.798 112.264C323.481 112.349 324.163 112.392 324.846 112.392C325.614 112.392 326.339 112.392 327.022 112.392C334.275 112.392 340.761 111.069 346.478 108.424C352.195 105.864 357.23 102.536 361.582 98.44C366.019 94.2587 369.859 89.864 373.102 85.256C376.43 80.648 379.289 76.296 381.678 72.2C384.153 68.0187 386.243 64.648 387.95 62.088C391.363 57.0533 394.862 52.1893 398.446 47.496C402.115 42.7173 405.913 38.4507 409.838 34.696C413.763 30.9413 417.859 28.0827 422.126 26.12C417.689 25.9493 412.995 25.48 408.046 24.712C403.182 23.944 398.958 23.56 395.374 23.56C389.571 23.56 384.921 24.456 381.422 26.248C377.923 27.9547 375.363 30.088 373.742 32.648C372.206 35.208 371.438 37.768 371.438 40.328C371.438 43.912 372.462 46.6 374.51 48.392C376.558 50.0987 378.862 50.952 381.422 50.952C383.897 50.952 386.243 50.2267 388.462 48.776C390.681 47.24 392.174 45.2347 392.942 42.76V42.504C392.942 42.0773 393.027 41.608 393.198 41.096C393.283 40.7547 393.326 40.2 393.326 39.432C393.326 39.0907 393.326 38.7493 393.326 38.408C393.326 38.0667 393.241 37.7253 393.07 37.384C392.899 36.5307 392.601 35.8053 392.174 35.208C391.833 34.6107 391.491 34.184 391.15 33.928C390.553 33.416 389.699 33.16 388.59 33.16C387.737 33.16 387.097 33.416 386.67 33.928C386.585 34.184 386.414 34.312 386.158 34.312C385.561 34.312 385.433 33.7573 385.774 32.648C386.03 31.7093 386.457 31.0267 387.054 30.6C387.737 30.088 388.419 29.832 389.102 29.832C390.382 29.832 391.534 30.472 392.558 31.752C393.753 33.2027 394.265 34.9947 394.094 37.128C394.179 37.4693 394.222 37.8107 394.222 38.152C394.307 38.4933 394.35 38.792 394.35 39.048C394.947 38.1093 395.587 37.4267 396.27 37C397.038 36.488 397.849 36.232 398.702 36.232C399.555 36.232 400.281 36.488 400.878 37C401.475 37.512 401.774 38.2373 401.774 39.176C401.774 39.8587 401.603 40.328 401.262 40.584C401.006 40.7547 400.835 40.584 400.75 40.072C400.579 39.3893 399.897 39.048 398.702 39.048C398.446 39.048 398.19 39.0907 397.934 39.176C397.678 39.176 397.422 39.2187 397.166 39.304C396.142 39.6453 395.203 40.3707 394.35 41.48C393.923 44.808 392.387 47.4107 389.742 49.288C387.097 51.1653 384.153 52.104 380.91 52.104C378.777 52.104 376.686 51.6347 374.638 50.696C372.59 49.7573 370.926 48.392 369.646 46.6C369.646 46.856 369.646 47.112 369.646 47.368C369.646 47.624 369.603 47.88 369.518 48.136C368.921 49.672 367.854 50.44 366.318 50.44C365.55 50.44 364.91 50.1413 364.398 49.544C364.057 49.1173 363.929 48.8187 364.014 48.648C364.185 48.392 364.441 48.3493 364.782 48.52C364.867 48.6053 365.038 48.648 365.294 48.648C366.062 48.648 366.83 48.136 367.598 47.112C367.769 46.7707 367.939 46.3013 368.11 45.704C368.281 45.1067 368.281 44.4667 368.11 43.784C367.854 43.016 367.641 42.2053 367.47 41.352C367.299 40.4133 367.214 39.4747 367.214 38.536C367.214 36.5733 367.683 34.568 368.622 32.52L368.366 32.648C367.086 33.2453 365.891 33.416 364.782 33.16C364.441 33.928 363.801 34.6107 362.862 35.208C362.009 35.72 360.942 35.976 359.662 35.976C358.723 35.976 357.529 35.6773 356.078 35.08C354.713 34.4827 353.518 33.7147 352.494 32.776C351.47 31.8373 350.958 30.856 350.958 29.832V29.576C350.958 29.1493 351.001 28.8507 351.086 28.68C351.257 28.5093 351.385 28.3813 351.47 28.296C351.641 28.8933 351.982 29.32 352.494 29.576C353.006 29.832 353.561 29.96 354.158 29.96C354.926 29.96 355.651 29.7893 356.334 29.448C356.846 29.192 357.443 28.936 358.126 28.68C358.809 28.424 359.662 28.296 360.686 28.296C361.795 28.296 362.819 28.68 363.758 29.448C364.697 30.1307 365.123 31.0693 365.038 32.264H365.55C366.403 32.264 367.257 32.008 368.11 31.496C368.451 31.3253 368.75 31.1547 369.006 30.984C369.347 30.728 369.646 30.5147 369.902 30.344C371.609 27.8693 374.169 25.7787 377.582 24.072C381.081 22.3653 385.603 21.4267 391.15 21.256C392.942 21.256 395.459 21.4267 398.702 21.768C401.945 22.024 405.401 22.3653 409.07 22.792C412.825 23.2187 416.323 23.6027 419.566 23.944C422.894 24.2 425.497 24.328 427.374 24.328C429.422 23.816 431.513 23.56 433.646 23.56C435.438 23.56 436.334 23.8587 436.334 24.456C436.334 25.0533 435.438 25.352 433.646 25.352C430.745 25.4373 427.801 26.4613 424.814 28.424C421.913 30.3867 419.011 32.904 416.11 35.976C413.294 38.9627 410.606 42.1627 408.046 45.576C405.571 48.904 403.353 52.1467 401.39 55.304C399.427 58.376 397.849 60.8933 396.654 62.856C395.033 65.5013 392.857 69 390.126 73.352C387.395 77.6187 384.025 82.1413 380.014 86.92C376.089 91.6987 371.523 96.2213 366.318 100.488C361.113 104.669 355.267 108.083 348.782 110.728C342.382 113.459 335.257 114.824 327.406 114.824C326.553 114.824 325.699 114.781 324.846 114.696C324.078 114.696 323.225 114.653 322.286 114.568C319.897 114.397 317.593 113.971 315.374 113.288C313.155 112.691 311.022 111.923 308.974 110.984C308.206 110.984 307.481 111.112 306.798 111.368C306.115 111.624 305.561 111.88 305.134 112.136C304.281 112.733 303.641 113.416 303.214 114.184C302.787 114.952 302.745 115.592 303.086 116.104C303.257 116.445 303.342 116.616 303.342 116.616C303.342 116.872 303.171 117 302.83 117ZM348.654 106.632C346.947 106.632 345.369 106.077 343.918 104.968C342.553 103.944 341.87 102.749 341.87 101.384C341.87 100.189 342.254 99.336 343.022 98.824C343.875 98.312 344.686 98.056 345.454 98.056C345.966 98.056 346.307 98.184 346.478 98.44C346.649 98.6107 346.435 98.8667 345.838 99.208C345.241 99.5493 344.942 100.189 344.942 101.128C344.942 101.981 345.198 102.792 345.71 103.56C346.051 104.072 346.606 104.627 347.374 105.224C348.227 105.821 349.251 106.12 350.446 106.12H350.702C350.873 106.12 350.659 106.205 350.062 106.376C349.55 106.547 349.081 106.632 348.654 106.632ZM449.515 107.528C445.59 107.528 442.56 106.504 440.427 104.456C438.294 102.408 437.227 100.36 437.227 98.312C437.227 96.6053 437.782 95.24 438.891 94.216C440 93.192 441.195 92.68 442.475 92.68C443.158 92.68 443.755 92.808 444.267 93.064C446.742 94.344 449.344 95.7093 452.075 97.16C454.891 98.6107 458.219 99.336 462.059 99.336C464.022 99.336 466.07 99.08 468.203 98.568C472.555 95.4107 476.608 91.656 480.363 87.304C484.203 82.8667 487.531 78.344 490.347 73.736C493.163 69.128 495.296 65.032 496.747 61.448C499.392 54.792 500.715 48.776 500.715 43.4C500.715 38.3653 499.648 34.184 497.515 30.856C495.467 27.4427 492.694 24.8827 489.195 23.176C485.696 21.4693 481.814 20.616 477.547 20.616C472.342 20.616 467.478 21.3413 462.955 22.792C462.443 23.1333 461.931 23.5173 461.419 23.944C460.907 24.2853 460.438 24.712 460.011 25.224C458.987 26.504 458.56 27.656 458.731 28.68C459.67 28.7653 460.395 29.192 460.907 29.96C461.504 30.728 461.803 31.5813 461.803 32.52C461.803 33.6293 461.632 34.5253 461.291 35.208C460.95 35.8907 460.651 36.488 460.395 37C459.968 37.6827 459.755 38.536 459.755 39.56C459.755 39.9867 459.84 40.4133 460.011 40.84C460.182 41.1813 460.523 41.4373 461.035 41.608C460.864 41.9493 460.48 42.12 459.883 42.12C458.944 42.12 458.048 41.6507 457.195 40.712C456.342 39.7733 455.659 38.664 455.147 37.384C454.635 36.104 454.379 34.952 454.379 33.928C454.379 32.4773 454.763 31.2827 455.531 30.344C456.299 29.32 457.11 28.7653 457.963 28.68V28.168C457.963 27.0587 458.304 25.9493 458.987 24.84C459.072 24.6693 459.286 24.4133 459.627 24.072C454.934 25.9493 450.838 28.5093 447.339 31.752C443.84 34.9093 440.939 38.3227 438.635 41.992C437.867 43.272 437.142 44.5947 436.459 45.96C435.776 47.24 435.222 48.5627 434.795 49.928C434.624 50.44 434.496 50.9947 434.411 51.592C434.326 52.1893 434.283 52.7867 434.283 53.384C434.283 54.664 434.496 55.9013 434.923 57.096C435.35 58.2053 436.032 59.1013 436.971 59.784C437.995 59.016 439.19 58.632 440.555 58.632C441.408 58.632 442.134 58.76 442.731 59.016C443.926 59.4427 444.822 59.9547 445.419 60.552C446.102 61.1493 446.656 61.7467 447.083 62.344C447.51 62.7707 448.064 63.1973 448.747 63.624C449.515 63.9653 450.24 64.136 450.923 64.136C451.862 64.136 452.544 63.7947 452.971 63.112C453.227 63.368 453.355 63.6667 453.355 64.008C453.355 64.264 453.227 64.648 452.971 65.16C452.374 66.3547 451.136 67.2933 449.259 67.976C447.467 68.5733 445.675 68.872 443.883 68.872C441.238 68.872 439.147 68.0613 437.611 66.44C436.075 64.8187 435.478 63.24 435.819 61.704C435.99 61.192 436.16 60.8507 436.331 60.68C435.563 60.168 434.923 59.4853 434.411 58.632C433.899 57.6933 433.472 56.7547 433.131 55.816C432.96 56.9253 432.79 58.0347 432.619 59.144C432.534 60.2533 432.491 61.32 432.491 62.344C432.491 66.3547 433.174 69.7253 434.539 72.456C436.075 75.4427 438.294 77.6187 441.195 78.984C444.096 80.3493 447.126 81.032 450.283 81.032C455.488 81.032 460.224 79.6667 464.491 76.936C465.43 76.2533 466.368 75.1867 467.307 73.736C468.331 72.2853 468.715 70.7493 468.459 69.128C467.947 69.384 467.35 69.512 466.667 69.512C465.728 69.512 464.79 69.2133 463.851 68.616C462.912 67.9333 462.23 67.1227 461.803 66.184C461.206 64.9893 460.864 63.9227 460.779 62.984C460.779 61.96 460.779 61.1067 460.779 60.424C460.779 59.4 460.438 58.2907 459.755 57.096C459.072 55.9013 458.134 55.4747 456.939 55.816C457.195 55.048 457.664 54.536 458.347 54.28C459.03 53.9387 459.712 53.768 460.395 53.768C460.992 53.768 461.547 53.8533 462.059 54.024C462.571 54.1093 462.998 54.2373 463.339 54.408C464.79 54.92 466.07 55.7733 467.179 56.968C468.374 58.0773 469.27 59.1867 469.867 60.296C470.635 61.6613 471.019 63.0267 471.019 64.392C471.019 66.184 470.464 67.5493 469.355 68.488C469.526 68.8293 469.611 69.1707 469.611 69.512C469.611 69.8533 469.611 70.2373 469.611 70.664C469.611 71.688 469.355 72.7973 468.843 73.992C468.502 74.76 468.118 75.4427 467.691 76.04C467.947 75.9547 468.203 75.912 468.459 75.912C468.715 75.912 468.928 75.912 469.099 75.912C470.379 76.0827 471.232 76.5093 471.659 77.192C472.171 77.8747 472.427 78.5573 472.427 79.24C472.427 79.6667 472.342 80.136 472.171 80.648C472.086 80.9893 471.83 81.16 471.403 81.16C470.891 81.16 470.592 80.8187 470.507 80.136C470.422 79.5387 470.038 79.1547 469.355 78.984C468.672 78.728 467.904 78.6 467.051 78.6C466.71 78.6 466.326 78.6427 465.899 78.728C465.558 78.728 465.174 78.7707 464.747 78.856C464.662 78.9413 464.576 78.984 464.491 78.984H464.363C460.096 81.7147 455.19 83.08 449.643 83.08C445.974 83.08 442.475 82.312 439.147 80.776C435.819 79.1547 433.259 76.5947 431.467 73.096V73.864C431.467 74.888 431.296 75.7413 430.955 76.424C430.102 78.472 428.822 79.496 427.115 79.496C425.92 79.496 424.982 78.8987 424.299 77.704C423.958 77.1067 423.872 76.6373 424.043 76.296C424.214 75.9547 424.47 75.9547 424.811 76.296C425.067 76.552 425.366 76.68 425.707 76.68C426.816 76.68 427.883 75.9547 428.907 74.504C429.334 73.992 429.675 73.2667 429.931 72.328C430.272 71.3893 430.358 70.4933 430.187 69.64C429.419 67.1653 429.035 64.52 429.035 61.704C429.035 58.4613 429.547 55.1333 430.571 51.72C431.595 48.2213 433.174 44.808 435.307 41.48C436.502 39.5173 437.867 37.64 439.403 35.848C441.024 34.056 442.774 32.3493 444.651 30.728C444.31 30.8133 443.926 30.856 443.499 30.856C443.072 30.856 442.646 30.856 442.219 30.856C440.256 30.6853 438.592 29.9173 437.227 28.552C436.886 28.7227 436.374 28.808 435.691 28.808C434.667 28.808 433.558 28.424 432.363 27.656C431.254 26.888 430.358 25.7787 429.675 24.328C429.334 23.6453 429.035 22.792 428.779 21.768C428.608 20.744 428.523 19.72 428.523 18.696C428.523 17.16 428.736 15.7093 429.163 14.344C429.675 12.9787 430.358 11.9973 431.211 11.4C431.808 10.9733 432.278 10.8027 432.619 10.888C433.046 10.888 433.302 10.9307 433.387 11.016C432.79 11.528 432.491 12.168 432.491 12.936C432.491 13.704 432.747 14.472 433.259 15.24C433.856 16.008 434.454 16.6053 435.051 17.032C435.734 17.4587 436.416 17.9707 437.099 18.568C437.867 19.08 438.55 19.9333 439.147 21.128C439.659 21.9813 439.915 23.0053 439.915 24.2C439.915 25.9067 439.36 27.1867 438.251 28.04C439.19 28.9787 440.683 29.448 442.731 29.448C443.499 29.448 444.267 29.3627 445.035 29.192C445.888 29.0213 446.656 28.808 447.339 28.552C450.326 26.3333 453.654 24.4133 457.323 22.792C461.078 21.0853 465.088 19.8053 469.355 18.952C468.331 18.5253 467.435 17.928 466.667 17.16C465.984 16.3067 465.643 15.368 465.643 14.344C465.643 13.2347 465.984 12.5093 466.667 12.168C467.35 11.7413 467.947 11.528 468.459 11.528C468.544 11.528 468.587 11.528 468.587 11.528H468.459C468.118 11.6133 467.947 12.0827 467.947 12.936C467.947 13.7893 468.246 14.856 468.843 16.136C469.44 17.416 470.294 18.2267 471.403 18.568L471.531 18.696C474.347 18.184 477.334 17.928 480.491 17.928C485.782 17.928 490.646 18.824 495.083 20.616C499.52 22.3227 503.062 24.968 505.707 28.552C508.352 32.0507 509.675 36.5733 509.675 42.12C509.675 44.5093 509.376 47.112 508.779 49.928C508.182 52.744 507.243 55.7733 505.963 59.016C504.598 62.4293 502.379 66.3547 499.307 70.792C496.32 75.144 492.779 79.5387 488.683 83.976C484.672 88.4133 480.363 92.4667 475.755 96.136C479.51 94.4293 483.691 92.04 488.299 88.968C492.907 85.8107 498.07 81.7147 503.787 76.68C509.163 71.9867 514.07 66.9093 518.507 61.448C522.944 55.9867 526.912 50.7387 530.411 45.704C533.995 40.584 537.195 36.1893 540.011 32.52C545.387 25.5227 550.251 20.1467 554.603 16.392C559.04 12.6373 563.008 10.0347 566.507 8.58399C570.091 7.13333 573.248 6.408 575.979 6.408C577.43 6.408 578.71 6.536 579.819 6.79199C581.782 7.13333 583.36 7.98666 584.555 9.352C585.75 10.7173 586.347 12.296 586.347 14.088C586.347 15.2827 586.048 16.4773 585.451 17.672L583.659 16.904C584.171 15.88 584.427 14.8987 584.427 13.96C584.427 12.3387 583.787 11.016 582.507 9.992C581.312 8.96799 579.734 8.45599 577.771 8.45599C575.296 8.45599 572.267 9.43733 568.683 11.4C565.184 13.3627 561.088 16.6053 556.395 21.128C551.787 25.5653 546.539 31.5813 540.651 39.176C536.47 44.6373 531.52 50.7387 525.803 57.48C520.086 64.136 513.174 71.048 505.067 78.216C497.558 84.7867 490.902 89.736 485.099 93.064C479.296 96.3067 474.262 98.6533 469.995 100.104C466.496 102.323 462.998 104.115 459.499 105.48C456.086 106.845 452.758 107.528 449.515 107.528ZM449.259 105.736C451.819 105.736 454.336 105.309 456.811 104.456C459.286 103.688 461.76 102.621 464.235 101.256H463.595C463.254 101.341 462.912 101.384 462.571 101.384C462.23 101.384 461.846 101.384 461.419 101.384C459.03 101.384 456.854 101.128 454.891 100.616C453.014 100.104 451.52 99.72 450.411 99.464C449.643 99.2933 448.918 99.1653 448.235 99.08C447.638 98.9947 447.083 98.952 446.571 98.952C444.267 98.952 443.115 99.6773 443.115 101.128C443.115 102.152 443.712 103.176 444.907 104.2C446.187 105.224 447.638 105.736 449.259 105.736ZM557.505 117C557.164 117 556.78 116.872 556.353 116.616C555.244 115.848 554.689 114.952 554.689 113.928C554.689 112.136 555.841 110.813 558.145 109.96C559.084 109.533 560.108 109.405 561.217 109.576C556.438 106.76 552.598 103.091 549.697 98.568C546.796 93.96 545.345 88.968 545.345 83.592C545.345 80.6907 545.814 77.7467 546.753 74.76C547.777 71.688 549.356 68.6587 551.489 65.672C552.086 64.904 552.684 64.136 553.281 63.368C553.964 62.6 554.646 61.8747 555.329 61.192H555.201C555.884 60.5093 556.396 59.6133 556.737 58.504C557.078 57.3093 557.249 56.2427 557.249 55.304C557.249 53.9387 556.822 52.6587 555.969 51.464C555.201 50.184 554.348 49.672 553.409 49.928C553.324 49.928 553.238 49.9707 553.153 50.056C553.153 50.056 553.11 50.056 553.025 50.056C552.598 50.056 552.385 49.8853 552.385 49.544C552.385 48.9467 552.769 48.4773 553.537 48.136C554.39 47.5387 555.244 47.24 556.097 47.24C557.292 47.24 558.273 47.752 559.041 48.776C559.894 49.8 560.321 51.1227 560.321 52.744C560.321 55.1333 559.425 57.3093 557.633 59.272C561.217 56.3707 565.313 54.1093 569.921 52.488C574.529 50.8667 579.18 49.9707 583.873 49.8L584.001 49.672C585.878 48.7333 587.116 47.624 587.713 46.344C586.433 46.088 585.366 45.4053 584.513 44.296C583.745 43.1013 583.361 41.8213 583.361 40.456C583.361 39.0053 583.574 37.8107 584.001 36.872C584.428 35.848 584.812 34.9947 585.153 34.312C585.324 33.8853 585.494 33.416 585.665 32.904C585.836 32.3067 585.921 31.7093 585.921 31.112C585.921 30.344 585.75 29.6187 585.409 28.936C585.153 28.2533 584.598 27.8267 583.745 27.656C583.83 27.4853 584.001 27.3147 584.257 27.144C584.513 26.9733 584.94 26.888 585.537 26.888C586.988 26.888 588.353 27.5707 589.633 28.936C590.913 30.3013 591.98 31.9227 592.833 33.8C593.686 35.592 594.113 37.2133 594.113 38.664C594.113 40.712 593.558 42.4613 592.449 43.912C591.425 45.3627 590.273 46.1733 588.993 46.344C588.481 47.7093 587.713 48.8187 586.689 49.672C591.212 49.7573 595.564 50.5253 599.745 51.976C603.926 53.3413 607.596 55.4747 610.753 58.376C613.057 60.424 614.806 62.8133 616.001 65.544C617.11 66.4827 618.177 67.0373 619.201 67.208C619.884 67.3787 620.438 67.464 620.865 67.464C621.548 67.464 622.145 67.336 622.657 67.08C623.169 66.824 623.468 66.4827 623.553 66.056C623.553 65.6293 623.681 65.416 623.937 65.416C624.534 65.416 624.833 66.0987 624.833 67.464C624.833 68.488 624.492 69.2987 623.809 69.896C623.126 70.408 622.316 70.664 621.377 70.664C621.036 70.664 620.609 70.6213 620.097 70.536C619.67 70.4507 619.244 70.28 618.817 70.024C618.561 69.8533 618.262 69.6827 617.921 69.512C617.665 69.256 617.409 69.0427 617.153 68.872C617.58 70.5787 617.793 72.2 617.793 73.736C617.793 74.9307 617.665 76.1253 617.409 77.32C617.153 78.5147 616.684 79.6667 616.001 80.776C616.172 82.2267 615.916 83.72 615.233 85.256C614.636 86.7067 613.356 87.8587 611.393 88.712C610.284 89.1387 609.132 89.352 607.937 89.352C606.657 89.352 605.334 89.1813 603.969 88.84C602.604 88.4987 601.281 88.072 600.001 87.56C599.404 87.304 598.636 87.176 597.697 87.176C596.844 87.176 596.033 87.304 595.265 87.56C594.582 87.816 594.07 88.2 593.729 88.712C593.388 89.3093 593.132 89.736 592.961 89.992C592.876 90.248 592.705 90.12 592.449 89.608C592.193 89.096 592.065 88.5413 592.065 87.944C592.065 86.3227 592.833 84.9573 594.369 83.848C595.564 82.9093 597.014 82.2267 598.721 81.8C600.513 81.3733 602.049 81.16 603.329 81.16C603.756 81.16 604.097 81.2027 604.353 81.288C604.694 81.288 604.993 81.3307 605.249 81.416C605.42 81.416 605.548 81.4587 605.633 81.544C605.804 81.544 605.932 81.544 606.017 81.544C605.42 80.9467 605.121 80.2213 605.121 79.368C605.121 78.2587 605.505 77.4053 606.273 76.808C606.614 76.6373 606.828 76.552 606.913 76.552C607.084 76.552 607.212 76.68 607.297 76.936C607.468 77.1067 607.468 77.32 607.297 77.576C607.041 77.9173 606.913 78.2587 606.913 78.6C606.913 79.4533 607.34 80.2213 608.193 80.904C609.132 81.5013 610.113 81.7573 611.137 81.672C612.332 81.416 613.356 81.032 614.209 80.52C615.489 78.5573 616.129 76.3387 616.129 73.864C616.129 71.3893 615.532 68.9147 614.337 66.44C613.228 63.88 611.606 61.6613 609.473 59.784C606.742 57.3093 603.542 55.5173 599.873 54.408C596.289 53.2133 592.577 52.616 588.737 52.616C582.849 52.616 577.046 53.8107 571.329 56.2C565.612 58.5893 561.004 61.9173 557.505 66.184C558.017 66.0133 558.486 65.8853 558.913 65.8C559.425 65.7147 559.937 65.672 560.449 65.672C561.302 65.672 562.156 65.8 563.009 66.056L563.137 65.928C563.99 65.0747 565.27 64.648 566.977 64.648C567.916 64.648 568.94 64.8613 570.049 65.288C571.158 65.6293 572.182 66.2267 573.121 67.08C574.401 68.1893 575.51 69.8107 576.449 71.944C577.388 74.0773 577.857 76.1253 577.857 78.088C577.857 79.368 577.601 80.4773 577.089 81.416C576.662 82.0133 576.236 82.3973 575.809 82.568C575.468 82.6533 575.212 82.6533 575.041 82.568C575.212 82.056 575.297 81.672 575.297 81.416C575.297 80.3067 574.742 79.368 573.633 78.6C572.524 77.7467 571.5 77.2347 570.561 77.064C569.708 76.8933 568.769 76.68 567.745 76.424C566.806 76.0827 565.74 75.4853 564.545 74.632C563.692 74.0347 563.009 73.2667 562.497 72.328C562.07 71.304 561.857 70.3227 561.857 69.384C561.857 68.616 561.985 67.9333 562.241 67.336C561.9 67.2507 561.558 67.208 561.217 67.208C560.876 67.1227 560.534 67.08 560.193 67.08C558.913 67.08 557.462 67.5067 555.841 68.36C554.134 70.92 552.854 73.5653 552.001 76.296C551.233 78.9413 550.849 81.6293 550.849 84.36C550.849 89.0533 551.958 93.448 554.177 97.544C556.481 101.64 559.638 105.011 563.649 107.656C567.66 110.301 572.268 111.837 577.473 112.264C578.156 112.349 578.838 112.392 579.521 112.392C580.289 112.392 581.014 112.392 581.697 112.392C588.95 112.392 595.436 111.069 601.153 108.424C606.87 105.864 611.905 102.536 616.257 98.44C620.694 94.2587 624.534 89.864 627.777 85.256C631.105 80.648 633.964 76.296 636.353 72.2C638.828 68.0187 640.918 64.648 642.625 62.088C646.038 57.0533 649.537 52.1893 653.121 47.496C656.79 42.7173 660.588 38.4507 664.513 34.696C668.438 30.9413 672.534 28.0827 676.801 26.12C672.364 25.9493 667.67 25.48 662.721 24.712C657.857 23.944 653.633 23.56 650.049 23.56C644.246 23.56 639.596 24.456 636.097 26.248C632.598 27.9547 630.038 30.088 628.417 32.648C626.881 35.208 626.113 37.768 626.113 40.328C626.113 43.912 627.137 46.6 629.185 48.392C631.233 50.0987 633.537 50.952 636.097 50.952C638.572 50.952 640.918 50.2267 643.137 48.776C645.356 47.24 646.849 45.2347 647.617 42.76V42.504C647.617 42.0773 647.702 41.608 647.873 41.096C647.958 40.7547 648.001 40.2 648.001 39.432C648.001 39.0907 648.001 38.7493 648.001 38.408C648.001 38.0667 647.916 37.7253 647.745 37.384C647.574 36.5307 647.276 35.8053 646.849 35.208C646.508 34.6107 646.166 34.184 645.825 33.928C645.228 33.416 644.374 33.16 643.265 33.16C642.412 33.16 641.772 33.416 641.345 33.928C641.26 34.184 641.089 34.312 640.833 34.312C640.236 34.312 640.108 33.7573 640.449 32.648C640.705 31.7093 641.132 31.0267 641.729 30.6C642.412 30.088 643.094 29.832 643.777 29.832C645.057 29.832 646.209 30.472 647.233 31.752C648.428 33.2027 648.94 34.9947 648.769 37.128C648.854 37.4693 648.897 37.8107 648.897 38.152C648.982 38.4933 649.025 38.792 649.025 39.048C649.622 38.1093 650.262 37.4267 650.945 37C651.713 36.488 652.524 36.232 653.377 36.232C654.23 36.232 654.956 36.488 655.553 37C656.15 37.512 656.449 38.2373 656.449 39.176C656.449 39.8587 656.278 40.328 655.937 40.584C655.681 40.7547 655.51 40.584 655.425 40.072C655.254 39.3893 654.572 39.048 653.377 39.048C653.121 39.048 652.865 39.0907 652.609 39.176C652.353 39.176 652.097 39.2187 651.841 39.304C650.817 39.6453 649.878 40.3707 649.025 41.48C648.598 44.808 647.062 47.4107 644.417 49.288C641.772 51.1653 638.828 52.104 635.585 52.104C633.452 52.104 631.361 51.6347 629.313 50.696C627.265 49.7573 625.601 48.392 624.321 46.6C624.321 46.856 624.321 47.112 624.321 47.368C624.321 47.624 624.278 47.88 624.193 48.136C623.596 49.672 622.529 50.44 620.993 50.44C620.225 50.44 619.585 50.1413 619.073 49.544C618.732 49.1173 618.604 48.8187 618.689 48.648C618.86 48.392 619.116 48.3493 619.457 48.52C619.542 48.6053 619.713 48.648 619.969 48.648C620.737 48.648 621.505 48.136 622.273 47.112C622.444 46.7707 622.614 46.3013 622.785 45.704C622.956 45.1067 622.956 44.4667 622.785 43.784C622.529 43.016 622.316 42.2053 622.145 41.352C621.974 40.4133 621.889 39.4747 621.889 38.536C621.889 36.5733 622.358 34.568 623.297 32.52L623.041 32.648C621.761 33.2453 620.566 33.416 619.457 33.16C619.116 33.928 618.476 34.6107 617.537 35.208C616.684 35.72 615.617 35.976 614.337 35.976C613.398 35.976 612.204 35.6773 610.753 35.08C609.388 34.4827 608.193 33.7147 607.169 32.776C606.145 31.8373 605.633 30.856 605.633 29.832V29.576C605.633 29.1493 605.676 28.8507 605.761 28.68C605.932 28.5093 606.06 28.3813 606.145 28.296C606.316 28.8933 606.657 29.32 607.169 29.576C607.681 29.832 608.236 29.96 608.833 29.96C609.601 29.96 610.326 29.7893 611.009 29.448C611.521 29.192 612.118 28.936 612.801 28.68C613.484 28.424 614.337 28.296 615.361 28.296C616.47 28.296 617.494 28.68 618.433 29.448C619.372 30.1307 619.798 31.0693 619.713 32.264H620.225C621.078 32.264 621.932 32.008 622.785 31.496C623.126 31.3253 623.425 31.1547 623.681 30.984C624.022 30.728 624.321 30.5147 624.577 30.344C626.284 27.8693 628.844 25.7787 632.257 24.072C635.756 22.3653 640.278 21.4267 645.825 21.256C647.617 21.256 650.134 21.4267 653.377 21.768C656.62 22.024 660.076 22.3653 663.745 22.792C667.5 23.2187 670.998 23.6027 674.241 23.944C677.569 24.2 680.172 24.328 682.049 24.328C684.097 23.816 686.188 23.56 688.321 23.56C690.113 23.56 691.009 23.8587 691.009 24.456C691.009 25.0533 690.113 25.352 688.321 25.352C685.42 25.4373 682.476 26.4613 679.489 28.424C676.588 30.3867 673.686 32.904 670.785 35.976C667.969 38.9627 665.281 42.1627 662.721 45.576C660.246 48.904 658.028 52.1467 656.065 55.304C654.102 58.376 652.524 60.8933 651.329 62.856C649.708 65.5013 647.532 69 644.801 73.352C642.07 77.6187 638.7 82.1413 634.689 86.92C630.764 91.6987 626.198 96.2213 620.993 100.488C615.788 104.669 609.942 108.083 603.457 110.728C597.057 113.459 589.932 114.824 582.081 114.824C581.228 114.824 580.374 114.781 579.521 114.696C578.753 114.696 577.9 114.653 576.961 114.568C574.572 114.397 572.268 113.971 570.049 113.288C567.83 112.691 565.697 111.923 563.649 110.984C562.881 110.984 562.156 111.112 561.473 111.368C560.79 111.624 560.236 111.88 559.809 112.136C558.956 112.733 558.316 113.416 557.889 114.184C557.462 114.952 557.42 115.592 557.761 116.104C557.932 116.445 558.017 116.616 558.017 116.616C558.017 116.872 557.846 117 557.505 117ZM603.329 106.632C601.622 106.632 600.044 106.077 598.593 104.968C597.228 103.944 596.545 102.749 596.545 101.384C596.545 100.189 596.929 99.336 597.697 98.824C598.55 98.312 599.361 98.056 600.129 98.056C600.641 98.056 600.982 98.184 601.153 98.44C601.324 98.6107 601.11 98.8667 600.513 99.208C599.916 99.5493 599.617 100.189 599.617 101.128C599.617 101.981 599.873 102.792 600.385 103.56C600.726 104.072 601.281 104.627 602.049 105.224C602.902 105.821 603.926 106.12 605.121 106.12H605.377C605.548 106.12 605.334 106.205 604.737 106.376C604.225 106.547 603.756 106.632 603.329 106.632Z" fill="black" style="fill:black;fill-opacity:1;"/>
</svg>
